<?xml version="1.0" encoding="UTF-8"?><svg xmlns="http://www.w3.org/2000/svg" viewBox="0 0 136.96 130.7"><defs><style>.d{fill:#e88732;}</style></defs><g id="a"/><g id="b"><g id="c"><g><path class="d" d="M108.48,48.26c-1.35-.44-2.72-.81-4.1-1.11,.94-1.06,1.83-2.16,2.67-3.31,4.46-6.14,7.2-13.36,7.92-20.87,.7-7.29-.5-14.68-3.48-21.38-.34-.76-1.05-1.28-1.88-1.37-7.29-.76-14.69,.38-21.41,3.3-6.92,3.01-12.94,7.84-17.4,13.98-.84,1.15-1.61,2.34-2.32,3.56-.71-1.22-1.49-2.41-2.32-3.56-4.46-6.14-10.48-10.97-17.4-13.98C42.04,.61,34.64-.53,27.35,.23c-.83,.09-1.54,.61-1.88,1.37-2.97,6.69-4.18,14.09-3.48,21.38,.72,7.51,3.46,14.73,7.92,20.87,.84,1.15,1.73,2.25,2.67,3.31-1.38,.3-2.75,.67-4.1,1.11-7.22,2.34-13.67,6.57-18.67,12.23C4.95,65.98,1.58,72.66,.05,79.83c-.17,.81,.1,1.66,.72,2.21,5.45,4.89,12.11,8.32,19.26,9.91,3.01,.67,6.08,1,9.14,1,4.44,0,8.88-.7,13.15-2.08,1.36-.44,2.68-.95,3.97-1.52-.14,1.41-.21,2.83-.21,4.24,0,7.59,2.03,15.04,5.86,21.54,3.72,6.31,9.04,11.58,15.38,15.25,.36,.21,.76,.31,1.16,.31s.8-.1,1.16-.31c6.34-3.67,11.66-8.94,15.38-15.25,3.83-6.5,5.86-13.95,5.86-21.54,0-1.42-.07-2.84-.21-4.24,1.3,.57,2.62,1.07,3.97,1.51,4.27,1.39,8.71,2.08,13.15,2.08,3.07,0,6.14-.33,9.15-1,7.15-1.59,13.81-5.02,19.26-9.91,.62-.55,.89-1.4,.72-2.21-1.53-7.16-4.9-13.85-9.75-19.34-5-5.66-11.46-9.88-18.68-12.23Zm-33.92-28.02c7.65-10.53,20.28-16.39,33.21-15.51,4.84,12.04,3.16,25.86-4.49,36.38-1.36,1.87-2.89,3.62-4.55,5.2-6.33-.51-12.72,.41-18.71,2.73-.28-.33-.57-.65-.88-.96l5.23-7.2c.75-1.04,.53-2.49-.51-3.24-1.04-.75-2.49-.52-3.24,.51l-3.84,5.29c-.61-3.4-.24-7.44,1.1-11.33,2.59-7.53,8.35-13.63,16.21-17.19,1.17-.53,1.69-1.9,1.16-3.07-.53-1.17-1.9-1.69-3.07-1.16-9.04,4.08-15.67,11.15-18.69,19.91-1.59,4.63-2.02,9.38-1.3,13.54-1.18-.3-2.42-.46-3.7-.46-.38,0-.75,.02-1.12,.05-.28-8.39,2.23-16.65,7.2-23.49Zm-6.08,28.09c5.78,0,10.49,4.7,10.49,10.49s-4.7,10.49-10.49,10.49-10.49-4.71-10.49-10.49,4.71-10.49,10.49-10.49ZM29.19,4.73c12.94-.88,25.57,4.98,33.21,15.51,1.36,1.87,2.55,3.87,3.54,5.94-2.44,5.86-3.54,12.22-3.19,18.64-.4,.16-.8,.35-1.18,.55l-5.23-7.2c-.75-1.04-2.21-1.27-3.24-.51s-1.27,2.21-.51,3.24l3.84,5.29c-3.42-.47-7.15-2.07-10.44-4.54-6.36-4.79-10.39-12.15-11.33-20.72-.14-1.27-1.29-2.19-2.56-2.05-1.28,.14-2.19,1.29-2.05,2.56,1.09,9.86,5.76,18.35,13.16,23.92,3.92,2.95,8.31,4.83,12.48,5.42-.86,1.36-1.5,2.85-1.89,4.45-8.07-2.32-15.14-7.27-20.11-14.11-7.65-10.53-9.32-24.35-4.49-36.38Zm11.7,81.72c-12.37,4.02-26.04,1.34-35.99-6.98,3.16-12.58,12.64-22.77,25.01-26.8,2.2-.71,4.46-1.23,6.74-1.53,4.82,4.13,10.53,7.15,16.74,8.79,.03,.44,.08,.87,.15,1.29l-8.46,2.75c-1.22,.4-1.89,1.71-1.49,2.93,.4,1.22,1.71,1.89,2.93,1.49l6.22-2.02c-1.51,3.11-4.18,6.16-7.55,8.52-6.53,4.57-14.77,6.12-23.21,4.38-1.26-.26-2.48,.55-2.74,1.8-.26,1.26,.55,2.48,1.8,2.74,2.58,.53,5.14,.8,7.66,.8,6.97,0,13.58-2.02,19.15-5.92,4.02-2.81,7.16-6.41,9.01-10.19,1.04,1.24,2.27,2.31,3.65,3.17-4.7,6.96-11.59,12.16-19.64,14.77Zm27.59,39.22c-10.99-6.9-17.75-19.06-17.75-32.07,0-2.31,.21-4.62,.62-6.88,5.42-3.31,10.05-7.81,13.53-13.2,.42,.1,.85,.19,1.28,.26v8.89c0,1.28,1.04,2.32,2.32,2.32s2.32-1.04,2.32-2.32v-6.54c2.49,2.39,4.57,5.88,5.78,9.81,2.33,7.62,1.26,15.94-3.01,23.43-.63,1.11-.25,2.53,.87,3.17,.36,.2,.76,.3,1.15,.3,.81,0,1.59-.42,2.02-1.17,4.91-8.62,6.12-18.24,3.42-27.09-1.43-4.69-3.88-8.78-6.91-11.72,1.52-.61,2.91-1.46,4.14-2.5,5.16,6.62,7.98,14.79,7.98,23.24,0,13.01-6.77,25.18-17.76,32.07Zm27.59-39.22c-2.2-.71-4.33-1.63-6.36-2.72-1.47-6.18-4.32-11.97-8.38-16.95,.23-.37,.44-.75,.64-1.13l8.46,2.75c1.22,.4,2.53-.27,2.93-1.49,.4-1.22-.27-2.53-1.49-2.93l-6.22-2.02c3.05-1.63,7-2.53,11.12-2.46,7.96,.14,15.55,3.73,21.35,10.1,.46,.5,1.09,.76,1.72,.76,.56,0,1.12-.2,1.56-.6,.95-.87,1.02-2.33,.15-3.28-6.68-7.33-15.45-11.46-24.71-11.62-4.9-.08-9.55,.98-13.28,2.95-.11-1.66-.49-3.24-1.09-4.71,7.89-2.86,16.53-3.02,24.57-.41,12.37,4.02,21.85,14.22,25.01,26.8-9.95,8.32-23.61,11-35.99,6.98Z"/><path class="d" d="M88.55,31.2c-1.04-.75-2.49-.52-3.24,.51l-.88,1.22c-.75,1.04-.52,2.49,.51,3.24,.41,.3,.89,.44,1.36,.44,.72,0,1.43-.33,1.88-.96l.88-1.21c.75-1.04,.52-2.49-.51-3.24Z"/><path class="d" d="M100.49,12.64c.18,0,.36-.02,.55-.07,1.16-.28,2.37-.52,3.59-.71,1.27-.2,2.13-1.39,1.93-2.66s-1.39-2.13-2.66-1.93c-1.35,.21-2.68,.48-3.96,.79-1.25,.3-2.01,1.56-1.71,2.8,.26,1.06,1.21,1.78,2.26,1.78Z"/><path class="d" d="M48.78,35.66c.45,.63,1.16,.96,1.88,.96,.47,0,.95-.14,1.36-.44,1.04-.75,1.27-2.21,.51-3.24l-.88-1.22c-.75-1.04-2.21-1.27-3.24-.51-1.04,.75-1.27,2.21-.51,3.24l.88,1.21Z"/><path class="d" d="M32.07,15.7c.06,0,.12,0,.18,0,1.2,0,2.22-.92,2.31-2.14,.09-1.19,.24-2.42,.43-3.64,.2-1.27-.66-2.46-1.93-2.66-1.27-.2-2.46,.66-2.66,1.93-.21,1.34-.37,2.69-.47,4-.1,1.28,.86,2.4,2.13,2.5Z"/><path class="d" d="M38.22,70.97c.24,0,.48-.04,.72-.12l1.43-.46c1.22-.4,1.89-1.71,1.49-2.93-.4-1.22-1.71-1.89-2.93-1.49l-1.43,.46c-1.22,.4-1.89,1.71-1.49,2.93,.32,.98,1.23,1.61,2.21,1.61Z"/><path class="d" d="M14.97,77.1c-1.1-.46-2.22-.97-3.33-1.54-1.14-.58-2.54-.13-3.12,1.02-.58,1.14-.13,2.54,1.01,3.12,1.21,.62,2.45,1.19,3.66,1.69,.29,.12,.59,.18,.89,.18,.91,0,1.78-.54,2.15-1.44,.49-1.19-.07-2.54-1.26-3.03Z"/><path class="d" d="M68.48,92.96h0c1.28,0,2.32-1.04,2.32-2.32v-1.5c0-1.28-1.04-2.32-2.32-2.32h0c-1.28,0-2.32,1.04-2.32,2.32v1.5c0,1.28,1.04,2.32,2.32,2.32Z"/><path class="d" d="M72.6,115.1c-.98-.83-2.44-.71-3.27,.26-.78,.91-1.61,1.81-2.49,2.69-.91,.91-.91,2.38,0,3.29,.45,.45,1.05,.68,1.64,.68s1.19-.23,1.64-.68c.96-.96,1.88-1.96,2.74-2.96,.83-.98,.71-2.44-.26-3.28Z"/><path class="d" d="M99.46,66.44l-1.43-.46c-1.22-.4-2.53,.27-2.93,1.49-.4,1.22,.27,2.53,1.49,2.93l1.43,.46c.24,.08,.48,.12,.72,.12,.98,0,1.89-.62,2.21-1.61,.4-1.22-.27-2.53-1.49-2.93Z"/><path class="d" d="M122.52,75.48c.62,1.02,1.23,2.09,1.79,3.2,.41,.8,1.22,1.27,2.07,1.27,.36,0,.71-.08,1.05-.25,1.14-.58,1.6-1.98,1.01-3.12-.62-1.21-1.28-2.4-1.97-3.52-.67-1.09-2.1-1.44-3.2-.76-1.09,.67-1.43,2.1-.76,3.19Z"/></g></g></g></svg>