<?xml version="1.0" encoding="UTF-8"?><svg xmlns="http://www.w3.org/2000/svg" viewBox="0 0 100.45 100.45"><defs><style>.d{fill:#e88732;}</style></defs><g id="a"/><g id="b"><g id="c"><g><path class="d" d="M96.57,2.19c-5.88-1.45-11.95-2.19-18.02-2.19-9.74,0-19.24,1.85-28.23,5.49-9.31,3.77-17.66,9.32-24.82,16.48C16.21,31.27,9.5,42.86,6.11,55.48c-3.18,11.82-3.41,24.33-.69,36.27l-4.73,4.73c-.91,.91-.91,2.38,0,3.28,.45,.46,1.05,.68,1.64,.68s1.19-.23,1.64-.68l4.73-4.73c5.48,1.25,11.1,1.88,16.74,1.88h0c9.74,0,19.24-1.85,28.23-5.49,9.31-3.77,17.66-9.32,24.82-16.48,9.3-9.3,16-20.89,19.4-33.51,3.29-12.25,3.42-25.23,.39-37.55-.21-.84-.86-1.49-1.7-1.7Zm-21.37,69.48c-13.29,13.29-30.96,20.61-49.76,20.61-4.3,0-8.59-.39-12.81-1.17l3.41-3.41h18.67c1.28,0,2.32-1.04,2.32-2.32s-1.04-2.32-2.32-2.32h-14.03l9.97-9.97h17.3c1.28,0,2.32-1.04,2.32-2.32s-1.04-2.32-2.32-2.32h-12.65l9.97-9.97h20.75c1.28,0,2.32-1.04,2.32-2.32s-1.04-2.32-2.32-2.32h-16.11l9.97-9.97h14.77c1.28,0,2.32-1.04,2.32-2.32s-1.04-2.32-2.32-2.32h-10.13l9.97-9.97h9.79c1.28,0,2.32-1.04,2.32-2.32s-1.04-2.32-2.32-2.32h-5.15l7.49-7.49c.91-.91,.91-2.38,0-3.29-.91-.91-2.38-.91-3.28,0l-7.49,7.49v-5.02c0-1.28-1.04-2.32-2.32-2.32s-2.32,1.04-2.32,2.32v9.66l-9.97,9.97v-14.9c0-1.28-1.04-2.32-2.32-2.32s-2.32,1.04-2.32,2.32v19.54l-9.97,9.97v-6.94c0-1.28-1.04-2.32-2.32-2.32s-2.32,1.04-2.32,2.32v11.58l-9.97,9.97v-21.18c0-1.28-1.04-2.32-2.32-2.32s-2.32,1.04-2.32,2.32v25.83l-9.97,9.97v-8.16c0-1.28-1.04-2.32-2.32-2.32s-2.32,1.04-2.32,2.32v12.8l-3.41,3.41c-4.25-22.86,2.86-45.98,19.44-62.57C42.08,11.96,59.75,4.64,78.55,4.64c5.23,0,10.45,.58,15.53,1.73,5.36,23.73-1.64,48.05-18.88,65.29Z"/><path class="d" d="M29.69,32.87c-1.28,0-2.32,1.04-2.32,2.32v1.71c0,1.28,1.04,2.32,2.32,2.32s2.32-1.04,2.32-2.32v-1.71c0-1.28-1.04-2.32-2.32-2.32Z"/><path class="d" d="M58.92,11.2c-1.28,0-2.32,1.04-2.32,2.32v1.28c0,1.28,1.04,2.32,2.32,2.32s2.32-1.04,2.32-2.32v-1.28c0-1.28-1.04-2.32-2.32-2.32Z"/><path class="d" d="M42.22,83.05h-1.1c-1.28,0-2.32,1.04-2.32,2.32s1.04,2.32,2.32,2.32h1.1c1.28,0,2.32-1.04,2.32-2.32s-1.04-2.32-2.32-2.32Z"/><path class="d" d="M77.3,53.82h-3.76c-1.28,0-2.32,1.04-2.32,2.32s1.04,2.32,2.32,2.32h3.76c1.28,0,2.32-1.04,2.32-2.32s-1.04-2.32-2.32-2.32Z"/><path class="d" d="M91.45,24.59h-.61c-1.28,0-2.32,1.04-2.32,2.32s1.04,2.32,2.32,2.32h.61c1.28,0,2.32-1.04,2.32-2.32s-1.04-2.32-2.32-2.32Z"/><path class="d" d="M44.31,32.87c-1.28,0-2.32,1.04-2.32,2.32v1.71c0,1.28,1.04,2.32,2.32,2.32s2.32-1.04,2.32-2.32v-1.71c0-1.28-1.04-2.32-2.32-2.32Z"/><path class="d" d="M56.14,68.44h-1.96c-1.28,0-2.32,1.04-2.32,2.32s1.04,2.32,2.32,2.32h1.96c1.28,0,2.32-1.04,2.32-2.32s-1.04-2.32-2.32-2.32Z"/><path class="d" d="M15.08,62.02c-1.28,0-2.32,1.04-2.32,2.32v1.3c0,1.28,1.04,2.32,2.32,2.32s2.32-1.04,2.32-2.32v-1.3c0-1.28-1.04-2.32-2.32-2.32Z"/><path class="d" d="M82.49,39.21h-1.61c-1.28,0-2.32,1.04-2.32,2.32s1.04,2.32,2.32,2.32h1.61c1.28,0,2.32-1.04,2.32-2.32s-1.04-2.32-2.32-2.32Z"/><path class="d" d="M73.54,7.03c-1.28,0-2.32,1.04-2.32,2.32v1.12c0,1.28,1.04,2.32,2.32,2.32s2.32-1.04,2.32-2.32v-1.12c0-1.28-1.04-2.32-2.32-2.32Z"/></g></g></g></svg>