<?xml version="1.0" encoding="UTF-8"?><svg xmlns="http://www.w3.org/2000/svg" viewBox="0 0 137.14 137.14"><defs><style>.d{fill:#e88732;}</style></defs><g id="a"/><g id="b"><g id="c"><g><path class="d" d="M20.08,117.06c6.3,6.3,13.63,11.24,21.8,14.69,8.45,3.58,17.43,5.39,26.69,5.39s18.24-1.81,26.69-5.39c8.17-3.45,15.5-8.4,21.79-14.69,6.3-6.3,11.24-13.63,14.69-21.79,.04-.1,.08-.19,.12-.29,0-.02,.02-.04,.03-.06,3.48-8.35,5.24-17.21,5.24-26.34s-1.81-18.24-5.39-26.69c-3.45-8.16-8.4-15.5-14.69-21.79-6.3-6.3-13.63-11.24-21.79-14.69C86.81,1.81,77.83,0,68.57,0s-18.24,1.81-26.69,5.39c-8.17,3.45-15.5,8.4-21.8,14.69-6.3,6.3-11.24,13.63-14.69,21.79C1.81,50.33,0,59.31,0,68.57s1.81,18.24,5.39,26.69c3.45,8.16,8.4,15.5,14.69,21.79Zm48.49,15.44c-23.06,0-43.31-12.27-54.55-30.63l8.64-8.64,4.56,4.56c.91,.91,2.38,.91,3.29,0l4.12-4.12,13.5,13.5c.91,.91,2.38,.91,3.29,0l8.19-8.19,9.12,9.12c.45,.45,1.05,.68,1.64,.68s1.19-.23,1.64-.68l11.35-11.35,23.2,23.2c-10.63,7.88-23.77,12.54-37.99,12.54Zm11.5-39.03l-9.71,9.71-9.12-9.12c-.91-.91-2.38-.91-3.28,0l-8.19,8.19-13.5-13.5c-.44-.44-1.03-.68-1.64-.68s-1.21,.24-1.64,.68l-4.12,4.12-2.92-2.92,25.3-25.3,28.83,28.83Zm-.55-7.12l19.61-19.61,19.84,19.84-6.06,6.06-7.96-7.96c-.91-.91-2.38-.91-3.28,0l-11.91,11.91-10.24-10.24Zm30.68,30.68l-17.16-17.16,10.27-10.27,7.96,7.96c.44,.44,1.03,.68,1.64,.68s1.21-.24,1.64-.68l7.7-7.7,4.71,4.71c-3.88,8.68-9.64,16.34-16.75,22.46ZM68.57,4.64c35.25,0,63.93,28.68,63.93,63.92,0,7.47-1.29,14.64-3.66,21.31l-28.06-28.06c-.44-.44-1.03-.68-1.64-.68s-1.21,.25-1.64,.68l-21.25,21.25-23.36-23.35c-.91-.91-2.38-.91-3.28,0l-28.59,28.59h0l-9.36,9.36c-4.48-8.73-7.01-18.62-7.01-29.09C4.64,33.32,33.32,4.64,68.57,4.64Z"/><path class="d" d="M31.76,53.11h15.51c4.76,0,8.63-3.87,8.63-8.63s-3.87-8.63-8.63-8.63c-1.28,0-2.32,1.04-2.32,2.32s1.04,2.32,2.32,2.32c2.2,0,3.99,1.79,3.99,3.99s-1.79,3.99-3.99,3.99h-15.51c-1.28,0-2.32,1.04-2.32,2.32s1.04,2.32,2.32,2.32Z"/><path class="d" d="M55.92,30.41h23.48c4.6,0,8.34-3.74,8.34-8.34s-3.74-8.34-8.34-8.34c-1.28,0-2.32,1.04-2.32,2.32s1.04,2.32,2.32,2.32c2.04,0,3.7,1.66,3.7,3.7s-1.66,3.7-3.7,3.7h-23.48c-1.28,0-2.32,1.04-2.32,2.32s1.04,2.32,2.32,2.32Z"/><path class="d" d="M107.94,47.88h-19.99c-1.28,0-2.32,1.04-2.32,2.32s1.04,2.32,2.32,2.32h19.99c4.6,0,8.34-3.74,8.34-8.34s-3.74-8.34-8.34-8.34c-1.28,0-2.32,1.04-2.32,2.32s1.04,2.32,2.32,2.32c2.04,0,3.7,1.66,3.7,3.7s-1.66,3.7-3.7,3.7Z"/><path class="d" d="M22.66,53.11h2.61c1.28,0,2.32-1.04,2.32-2.32s-1.04-2.32-2.32-2.32h-2.61c-1.28,0-2.32,1.04-2.32,2.32s1.04,2.32,2.32,2.32Z"/><path class="d" d="M45.88,30.41h2.61c1.28,0,2.32-1.04,2.32-2.32s-1.04-2.32-2.32-2.32h-2.61c-1.28,0-2.32,1.04-2.32,2.32s1.04,2.32,2.32,2.32Z"/><path class="d" d="M80.81,47.88h-2.61c-1.28,0-2.32,1.04-2.32,2.32s1.04,2.32,2.32,2.32h2.61c1.28,0,2.32-1.04,2.32-2.32s-1.04-2.32-2.32-2.32Z"/></g></g></g></svg>