<?xml version="1.0" encoding="UTF-8"?><svg xmlns="http://www.w3.org/2000/svg" viewBox="0 0 137.21 137.14"><defs><style>.d{fill:#0ec7e0;}</style></defs><g id="a"/><g id="b"><g id="c"><g><path class="d" d="M87.38,45.59h18.6c4.78,0,8.67-3.89,8.67-8.67,0-4.49-3.44-8.2-7.82-8.63-2.03-3.66-5.86-5.95-10.15-5.95s-8.12,2.29-10.15,5.95c-4.38,.43-7.82,4.13-7.82,8.63,0,4.78,3.89,8.67,8.67,8.67Zm0-12.69c.13,0,.27,0,.4,.02,1.04,.1,2.02-.5,2.39-1.47,1.05-2.71,3.6-4.46,6.51-4.46s5.46,1.75,6.51,4.46c.38,.97,1.35,1.57,2.39,1.47,.13-.01,.27-.02,.4-.02,2.22,0,4.02,1.81,4.02,4.02s-1.8,4.02-4.02,4.02h-18.6c-2.22,0-4.02-1.81-4.02-4.02s1.8-4.02,4.02-4.02Z"/><path class="d" d="M51.51,29h13.13c3.75,0,6.8-3.05,6.8-6.8,0-3.41-2.52-6.23-5.79-6.73-1.59-2.62-4.43-4.25-7.59-4.25s-5.99,1.62-7.59,4.25c-3.27,.49-5.79,3.32-5.79,6.73,0,3.75,3.05,6.8,6.8,6.8Zm0-8.96c.07,0,.14,0,.21,.01,1.04,.1,2.02-.5,2.39-1.47,.64-1.65,2.19-2.71,3.96-2.71s3.32,1.06,3.96,2.71c.38,.97,1.36,1.57,2.39,1.47,1.29-.13,2.37,.89,2.37,2.15,0,1.19-.97,2.16-2.16,2.16h-13.13c-1.19,0-2.16-.97-2.16-2.16s.97-2.16,2.16-2.16Z"/><path class="d" d="M.23,73.27c.51,7.6,2.26,14.98,5.23,21.99,3.45,8.16,8.4,15.5,14.69,21.79,6.3,6.3,13.63,11.24,21.79,14.69,8.46,3.58,17.44,5.39,26.69,5.39s17.72-1.71,25.97-5.09h.02c.23-.1,.47-.2,.7-.3,8.17-3.45,15.5-8.4,21.79-14.69,6.3-6.3,11.24-13.63,14.69-21.79,.04-.1,.08-.19,.12-.29,0-.02,.02-.04,.03-.06,3.48-8.35,5.24-17.21,5.24-26.34s-1.81-18.24-5.39-26.69c-3.45-8.17-8.4-15.5-14.69-21.79-6.3-6.3-13.63-11.24-21.79-14.69C86.88,1.81,77.9,0,68.64,0s-18.24,1.81-26.69,5.39c-8.17,3.45-15.5,8.4-21.79,14.69-6.3,6.3-11.24,13.63-14.69,21.79C1.89,50.33,.07,59.31,.07,68.57c0,.97,.02,1.94,.06,2.9-.21,.58-.18,1.23,.1,1.8Zm4.64-.29L42.06,35.8l5.18,5.18-19.83,19.83c-.91,.91-.91,2.38,0,3.28,.45,.45,1.05,.68,1.64,.68s1.19-.23,1.64-.68l19.83-19.83,32.3,32.3-6.51,6.51-23.36-23.36c-.44-.44-1.03-.68-1.64-.68s-1.21,.25-1.64,.68l-29.51,29.51h0l-8.43,8.43c-3.84-7.49-6.25-15.84-6.85-24.67Zm89.39,54.15l-27.47-27.47c-.91-.91-2.38-.91-3.29,0-.91,.91-.91,2.38,0,3.29l26.04,26.04c-6.55,2.27-13.59,3.51-20.9,3.51-23.06,0-43.31-12.27-54.55-30.63l7.71-7.71,16.24,16.24c.45,.45,1.05,.68,1.64,.68s1.19-.23,1.64-.68c.91-.91,.91-2.38,0-3.29l-16.24-16.24,26.23-26.23,55.31,55.31c-3.82,2.83-7.96,5.24-12.37,7.18Zm16.02-10.1l-30.68-30.68,19.61-19.61,12.02,12.02-5.55,5.55c-.91,.91-.91,2.38,0,3.29,.46,.45,1.05,.68,1.64,.68s1.19-.23,1.64-.68l5.55-5.55,12.53,12.53c-3.88,8.68-9.64,16.34-16.75,22.46ZM68.64,4.64c35.25,0,63.93,28.68,63.93,63.92,0,7.47-1.29,14.64-3.66,21.31l-12.76-12.76h0l-15.3-15.3c-.44-.44-1.03-.68-1.64-.68s-1.21,.25-1.64,.68l-11.46,11.46L52.17,39.33h0l-8.46-8.46c-.44-.44-1.03-.68-1.64-.68s-1.21,.24-1.64,.68L4.76,66.53C5.83,32.22,34.08,4.64,68.64,4.64Z"/><path class="d" d="M58.31,97.74c.45,.45,1.05,.68,1.64,.68s1.19-.23,1.64-.68c.91-.91,.91-2.38,0-3.28l-2.21-2.21c-.91-.91-2.38-.91-3.29,0-.91,.91-.91,2.38,0,3.28l2.21,2.21Z"/><path class="d" d="M47.27,113.05c-.91-.91-2.38-.91-3.29,0-.91,.91-.91,2.38,0,3.28l2.29,2.29c.45,.45,1.05,.68,1.64,.68s1.19-.23,1.64-.68c.91-.91,.91-2.38,0-3.28l-2.29-2.29Z"/><path class="d" d="M22.8,71.03c.59,0,1.19-.23,1.64-.68l1.37-1.37c.91-.91,.91-2.38,0-3.28-.91-.91-2.38-.91-3.29,0l-1.37,1.37c-.91,.91-.91,2.38,0,3.28,.45,.45,1.05,.68,1.64,.68Z"/><path class="d" d="M100.86,89.13l-.82,.82c-.91,.91-.91,2.38,0,3.28,.45,.45,1.05,.68,1.64,.68s1.19-.23,1.64-.68l.82-.82c.91-.91,.91-2.38,0-3.28-.91-.91-2.38-.91-3.29,0Z"/></g></g></g></svg>