<?xml version="1.0" encoding="UTF-8"?><svg xmlns="http://www.w3.org/2000/svg" viewBox="0 0 137.14 137.14"><defs><style>.d{fill:#e88732;}</style></defs><g id="a"/><g id="b"><g id="c"><g><path class="d" d="M95.26,5.39C86.81,1.81,77.83,0,68.57,0s-18.24,1.81-26.69,5.39c-8.16,3.45-15.5,8.4-21.79,14.69-6.29,6.3-11.24,13.63-14.69,21.79C1.81,50.33,0,59.31,0,68.57s1.81,18.24,5.39,26.69c3.45,8.16,8.4,15.5,14.69,21.79,6.3,6.3,13.63,11.24,21.79,14.69,8.46,3.58,17.44,5.39,26.69,5.39s18.24-1.81,26.69-5.39c8.17-3.45,15.5-8.4,21.79-14.69,5.27-5.27,9.58-11.26,12.87-17.86,.02-.03,.04-.07,.05-.1,.62-1.26,1.22-2.54,1.77-3.83,3.57-8.46,5.39-17.44,5.39-26.69s-1.81-18.24-5.39-26.69c-3.45-8.17-8.4-15.5-14.7-21.79-6.3-6.3-13.63-11.24-21.79-14.69Zm16.98,109.81h-29.99c-1.28,0-2.32,1.04-2.32,2.32s1.04,2.32,2.32,2.32h24.44c-10.65,7.94-23.85,12.65-38.13,12.65s-28.44-5.06-39.28-13.53c18.56-3.51,32.13-9.94,43.2-15.19,18.15-8.61,30.32-14.38,50.37-1.5-2.97,4.76-6.54,9.1-10.62,12.92Zm-14.91-24.97c-8.51,.8-16.52,4.46-25.66,8.79h-28.95c-1.28,0-2.32,1.04-2.32,2.32s1.04,2.32,2.32,2.32h18.99c-10.08,4.52-21.73,8.93-36.98,11.38-6.66-6.29-11.98-13.99-15.46-22.62H42.72c1.28,0,2.32-1.04,2.32-2.32s-1.04-2.32-2.32-2.32H7.6c-1.09-3.46-1.9-7.05-2.39-10.73,30.14,8.52,51.36,5.7,68.54,3.41,21.68-2.88,34.93-4.64,51.31,17.71-9.85-6.26-18.71-8.79-27.72-7.94Zm34.42-31.45h-20.51c-1.28,0-2.32,1.04-2.32,2.32s1.04,2.32,2.32,2.32h21.05c.14,1.7,.21,3.42,.21,5.15,0,8.87-1.82,17.32-5.1,25-17.45-22.6-33.04-20.53-54.27-17.71-10.17,1.35-21.81,2.9-35.93,2.05,22.05-4.78,36.77-13.24,49.04-20.29,15.82-9.09,26.37-15.15,43.18-8.66,1.02,3.17,1.81,6.45,2.33,9.81Zm-47.82-5.18c-14.65,8.42-32.87,18.88-63.23,22.31-5.03-.92-10.33-2.17-15.95-3.82-.06-1.16-.1-2.34-.1-3.51C4.65,33.32,33.32,4.64,68.57,4.64c26.29,0,48.92,15.96,58.73,38.69-16.82-4.99-28.69,1.82-43.37,10.26Z"/><path class="d" d="M47.92,24.29c-3.3,0-6.4,1.29-8.73,3.62-2.33,2.33-3.62,5.43-3.62,8.73s1.29,6.4,3.62,8.73c2.33,2.33,5.43,3.62,8.73,3.62s6.4-1.29,8.73-3.62c2.33-2.33,3.62-5.43,3.62-8.73s-1.29-6.4-3.62-8.73c-2.33-2.33-5.44-3.62-8.73-3.62Zm5.45,17.8c-1.45,1.46-3.39,2.26-5.45,2.26s-3.99-.8-5.45-2.26c-1.45-1.46-2.26-3.39-2.26-5.45s.8-3.99,2.26-5.45c1.46-1.46,3.39-2.26,5.45-2.26s3.99,.8,5.45,2.26c1.46,1.46,2.26,3.39,2.26,5.45s-.8,3.99-2.26,5.45Z"/><path class="d" d="M59.86,27.02c.59,0,1.19-.23,1.64-.68l2.17-2.17c.91-.91,.91-2.38,0-3.28-.91-.91-2.38-.91-3.28,0l-2.17,2.17c-.91,.91-.91,2.38,0,3.28,.45,.45,1.05,.68,1.64,.68Z"/><path class="d" d="M38.18,22.65c.41,.8,1.22,1.27,2.07,1.27,.36,0,.71-.08,1.05-.25,1.14-.58,1.6-1.98,1.02-3.12l-1.39-2.73c-.58-1.14-1.98-1.6-3.12-1.02-1.14,.58-1.6,1.98-1.02,3.12l1.39,2.73Z"/><path class="d" d="M30.87,36.99l-3.03,.48c-1.27,.2-2.13,1.39-1.93,2.66,.18,1.14,1.17,1.96,2.29,1.96,.12,0,.24,0,.37-.03l3.03-.48c1.27-.2,2.13-1.39,1.93-2.66-.2-1.27-1.39-2.13-2.66-1.93Z"/><path class="d" d="M45.64,51.03c-1.27-.2-2.46,.66-2.66,1.93l-.48,3.03c-.2,1.27,.66,2.46,1.93,2.66,.12,.02,.25,.03,.37,.03,1.12,0,2.11-.82,2.29-1.96l.48-3.03c.2-1.27-.66-2.46-1.93-2.66Z"/><path class="d" d="M66.75,43.63l-2.73-1.39c-1.14-.58-2.54-.13-3.12,1.02-.58,1.14-.13,2.54,1.02,3.12l2.73,1.39c.34,.17,.7,.25,1.05,.25,.85,0,1.66-.46,2.07-1.27,.58-1.14,.13-2.54-1.02-3.12Z"/><path class="d" d="M35.43,99.02h-1.23c-1.28,0-2.32,1.04-2.32,2.32s1.04,2.32,2.32,2.32h1.23c1.28,0,2.32-1.04,2.32-2.32s-1.04-2.32-2.32-2.32Z"/><path class="d" d="M51.17,87.79h-1.49c-1.28,0-2.32,1.04-2.32,2.32s1.04,2.32,2.32,2.32h1.49c1.28,0,2.32-1.04,2.32-2.32s-1.04-2.32-2.32-2.32Z"/><path class="d" d="M75.96,115.2h-.98c-1.28,0-2.32,1.04-2.32,2.32s1.04,2.32,2.32,2.32h.98c1.28,0,2.32-1.04,2.32-2.32s-1.04-2.32-2.32-2.32Z"/><path class="d" d="M104.92,58.77h-1.36c-1.28,0-2.32,1.04-2.32,2.32s1.04,2.32,2.32,2.32h1.36c1.28,0,2.32-1.04,2.32-2.32s-1.04-2.32-2.32-2.32Z"/></g></g></g></svg>