<?xml version="1.0" encoding="UTF-8"?><svg xmlns="http://www.w3.org/2000/svg" viewBox="0 0 97.53 137.14"><defs><style>.d{fill:#1d1d1b;}</style></defs><g id="a"/><g id="b"><g id="c"><g><path class="d" d="M83.07,19.72c-2.9-1.48-5.99-2.39-9.14-2.74,0-.02,0-.04-.02-.05-1.9-4.93-5.21-9.14-9.56-12.17C59.91,1.64,54.68,0,49.23,0h0c-7.07,0-13.71,2.75-18.71,7.75-2.3,2.3-4.13,4.96-5.43,7.84-.02,0-.04,0-.06,0-5.27,.29-10.3,2.13-14.53,5.33-4.33,3.27-7.51,7.74-9.19,12.92-2.18,6.72-1.62,13.89,1.59,20.19,1.48,2.9,3.44,5.46,5.78,7.59,0,.02-.01,.04-.02,.05-1.36,5.11-1.16,10.46,.58,15.47,1.77,5.13,5.04,9.53,9.45,12.73,4.57,3.32,9.96,5.06,15.5,5.06,1.39,0,2.8-.11,4.2-.33,.18-.03,.36-.06,.54-.09v37.98h-10.38c-1.28,0-2.32,1.04-2.32,2.32s1.04,2.32,2.32,2.32h36.99c1.28,0,2.32-1.04,2.32-2.32s-1.04-2.32-2.32-2.32h-9.5v-12.46c0-1.28-1.04-2.32-2.32-2.32s-2.32,1.04-2.32,2.32v12.46h-7.82v-39.25c1.32-.5,2.6-1.1,3.82-1.79,.02,0,.03,.02,.05,.03,1.26,.82,2.59,1.52,3.95,2.1v11.28c0,1.28,1.04,2.32,2.32,2.32s2.32-1.04,2.32-2.32v-9.78c1.88,.42,3.82,.63,5.78,.63,.17,0,.34,0,.51,0,5.43-.1,10.62-1.85,15.03-5.05,5.72-4.15,9.48-10.29,10.58-17.27,.51-3.22,.43-6.44-.22-9.54l.05-.04c4.1-3.33,7.08-7.78,8.62-12.85,1.58-5.19,1.53-10.68-.16-15.86-2.18-6.72-6.86-12.19-13.15-15.4Zm3.12,39.29c-.78-1.85-1.78-3.63-3-5.3-2.1-2.89-4.7-5.28-7.74-7.11-.79-.48-1.8-.44-2.55,.1s-1.11,1.48-.91,2.39c2.47,11.17,.38,18.73-6.58,23.78-1.04,.75-1.27,2.21-.51,3.24,.75,1.04,2.21,1.27,3.24,.51,7.15-5.19,10.23-12.6,9.34-22.53,.7,.73,1.36,1.51,1.96,2.34,3.42,4.71,4.81,10.48,3.9,16.24-.91,5.75-4.01,10.81-8.72,14.24-6.74,4.9-15.8,5.47-23.09,1.6,1.52-1.32,2.9-2.82,4.12-4.49,2.1-2.89,3.57-6.1,4.37-9.55,.21-.9-.14-1.85-.89-2.4-.75-.55-1.75-.6-2.55-.13-9.86,5.8-17.69,6.15-24.65,1.09-1.04-.75-2.49-.53-3.24,.51-.75,1.04-.52,2.49,.51,3.24,7.15,5.19,15.14,5.83,24.31,1.92-.48,.89-1.02,1.75-1.62,2.58-3.43,4.71-8.48,7.81-14.24,8.72-5.75,.91-11.52-.47-16.24-3.9-6.74-4.9-10.09-13.34-8.66-21.46,1.72,1.04,3.58,1.89,5.54,2.53,2.67,.87,5.4,1.3,8.17,1.3,.76,0,1.51-.03,2.27-.1,.93-.08,1.71-.7,2.01-1.58,.29-.88,.03-1.85-.67-2.47-8.56-7.59-11.31-14.93-8.65-23.11,.39-1.22-.27-2.53-1.49-2.93s-2.53,.27-2.93,1.49c-2.73,8.4-.87,16.2,5.69,23.71-1-.18-1.98-.42-2.96-.74-5.54-1.8-10.05-5.65-12.7-10.84-2.65-5.19-3.11-11.1-1.31-16.64,2.58-7.93,9.57-13.71,17.73-14.87-.46,1.96-.69,3.99-.69,6.05,0,3.57,.7,7.04,2.08,10.3,.36,.85,1.2,1.41,2.13,1.42h.01c.92,0,1.76-.55,2.13-1.39,4.57-10.49,10.7-15.37,19.3-15.37,1.28,0,2.32-1.04,2.32-2.32s-1.04-2.32-2.32-2.32c-8.83,0-15.68,4.18-20.8,12.74-.14-1-.21-2.02-.21-3.04,0-5.83,2.27-11.3,6.39-15.43,4.12-4.12,9.6-6.39,15.43-6.39,8.33,0,16,4.86,19.62,12.27-2.01,.17-4.01,.57-5.97,1.21-3.4,1.1-6.48,2.84-9.15,5.16-.7,.61-.97,1.58-.69,2.46,.28,.88,1.06,1.52,1.99,1.61,11.38,1.1,17.93,5.43,20.58,13.61,.4,1.22,1.71,1.89,2.93,1.49,1.22-.4,1.89-1.71,1.49-2.93-2.73-8.4-8.82-13.62-18.54-15.85,.91-.44,1.85-.82,2.83-1.14,5.54-1.8,11.45-1.34,16.64,1.31,5.19,2.64,9.04,7.15,10.84,12.7,2.58,7.93,.32,16.72-5.61,22.45Z"/><path class="d" d="M53.7,109.48c-1.28,0-2.32,1.04-2.32,2.32v1.91c0,1.28,1.04,2.32,2.32,2.32s2.32-1.04,2.32-2.32v-1.91c0-1.28-1.04-2.32-2.32-2.32Z"/><path class="d" d="M76.57,137.14c1.28,0,2.32-1.04,2.32-2.32s-1.04-2.32-2.32-2.32h-3.07c-1.28,0-2.32,1.04-2.32,2.32s1.04,2.32,2.32,2.32h3.07Z"/><path class="d" d="M20.81,137.14c1.28,0,2.32-1.04,2.32-2.32s-1.04-2.32-2.32-2.32h-3.06c-1.28,0-2.32,1.04-2.32,2.32s1.04,2.32,2.32,2.32h3.06Z"/></g></g></g></svg>